<svg xmlns="http://www.w3.org/2000/svg" xmlns:xlink="http://www.w3.org/1999/xlink" width="184.454" height="327.914" viewBox="0 0 184.454 327.914">
  <defs>
    <linearGradient id="linear-gradient" x1="0.474" y1="0.792" x2="0.861" y2="0.142" gradientUnits="objectBoundingBox">
      <stop offset="0" stop-color="#1d164d"/>
      <stop offset="1" stop-color="#4a4975"/>
    </linearGradient>
    <linearGradient id="linear-gradient-2" x1="0.209" y1="0.984" x2="0.732" y2="0.169" gradientUnits="objectBoundingBox">
      <stop offset="0" stop-color="#c9e2f4"/>
      <stop offset="1" stop-color="#eaf5ff"/>
    </linearGradient>
    <linearGradient id="linear-gradient-3" x1="0.296" y1="0.894" x2="0.502" y2="0.422" gradientUnits="objectBoundingBox">
      <stop offset="0" stop-color="#ffc0ac"/>
      <stop offset="1" stop-color="#ffd6c7"/>
    </linearGradient>
    <linearGradient id="linear-gradient-4" x1="-0.271" y1="1.412" x2="0.879" y2="0.262" gradientUnits="objectBoundingBox">
      <stop offset="0" stop-color="#c7283a"/>
      <stop offset="1" stop-color="#ef4b4b"/>
    </linearGradient>
    <linearGradient id="linear-gradient-5" x1="-0.66" y1="0.776" x2="1.999" y2="0.213" gradientUnits="objectBoundingBox">
      <stop offset="0" stop-color="#c7283a"/>
      <stop offset="1" stop-color="#c7283a" stop-opacity="0"/>
    </linearGradient>
    <linearGradient id="linear-gradient-6" x1="0.023" y1="0.682" x2="0.496" y2="0.18" xlink:href="#linear-gradient-3"/>
    <linearGradient id="linear-gradient-7" x1="0.443" y1="0.648" x2="0.563" y2="0.335" xlink:href="#linear-gradient"/>
    <linearGradient id="linear-gradient-8" x1="0.166" y1="1.545" x2="0.639" y2="0.048" xlink:href="#linear-gradient-3"/>
    <linearGradient id="linear-gradient-9" x1="0.565" y1="-0.198" x2="0.273" y2="2.017" xlink:href="#linear-gradient"/>
  </defs>
  <g id="obj" transform="translate(0)">
    <g id="Grupo_6" data-name="Grupo 6">
      <path id="Caminho_11" data-name="Caminho 11" d="M1038.908,374.628s-21.3-22.385,0-39.094,26.972-22.07,27.6-63.687,17.5-54.7,37.518-59.745,27.744,8.513,27.744,8.513,13.242-4.256,13.242,12.769-4.1,72.254,5.36,94.454S1038.908,374.628,1038.908,374.628Z" transform="translate(-1029.443 -210.978)" fill="url(#linear-gradient)"/>
      <path id="Caminho_12" data-name="Caminho 12" d="M990.5,458.072l1.816,2.175h28.063l-.454,1c-1.9,4.37-9.118,22.4-7.746,41.323,1.58,21.754,5.675,32.792,4.1,42.25h108.147l-11.35-69.68,10.083-19.863,8.834,6.621,12.854-44.133a32.45,32.45,0,0,0-1.22-21.65L1122.788,346.4a33.829,33.829,0,0,0-23.041-19.74l-17.517-4.341-4.606-1.144-2.705-.672-30.74,3.31-.492.189-3.263,1.286-22.085,8.692a40.081,40.081,0,0,0-25.112,32.47l-8.673,71.486A26.464,26.464,0,0,0,990.5,458.072Z" transform="translate(-982.05 -216.91)" fill="url(#linear-gradient-2)"/>
      <path id="Caminho_13" data-name="Caminho 13" d="M1112.51,466.988h28.063s2.005-8.144,4.559-20.421h-.01C1117.05,437.885,1112.51,466.988,1112.51,466.988Z" transform="translate(-1102.241 -223.651)" fill="#a7bec9"/>
      <path id="Caminho_14" data-name="Caminho 14" d="M1056.648,319.843V287.684s-15.763-5.833-13.714-16.394,9.774-8.985,13.714,0a10.4,10.4,0,0,0,1.1-7.342s28.612,1.273,35.705-16.7c0,0,2.838,9.695,9.931,11.823,0,0-.237,36.178-3.232,44.376s-12.769,6.936-12.769,6.936v6.148s2.365,8.827-5.99,12.138S1060.117,327.724,1056.648,319.843Z" transform="translate(-994.516 -212.942)" fill="url(#linear-gradient-3)"/>
      <path id="Caminho_15" data-name="Caminho 15" d="M1113.488,462.5l-3.244-1.816s15.256-37.833,19.04-74.087c.946-9.1,1.6-17.262,2.166-24.535a37.919,37.919,0,0,0-9.421,22.643c-.946,16.079-1.892,22.388-7.879,30.267s3.282,18.037-5.609,25.575c-4.767,4.029-6.886,13.771-7.831,21.953Z" transform="translate(-1077.397 -219.161)" fill="#c9e2f4"/>
      <path id="Caminho_16" data-name="Caminho 16" d="M1007.5,502.424c1.58,21.754,5.675,32.792,4.1,42.25h108.147l-11.35-69.68c-6.309-30.267-9.619-112.791-18.368-133.836-4.124-9.893-8.73-15.663-12.475-18.992-4.219-3.755-7.312-4.417-7.312-4.417a25.3,25.3,0,0,1,2.705,3.273c4.294,5.94,12.268,20.411,13.3,46.857,0,0-19.626,12.769-43.035,3.074,0,0-5.5-23.286-4.2-47.1.114-2.034.274-4.077.492-6.1a20.431,20.431,0,0,0-3.755,7.387c-3.462,11.2-3.519,30.617-6.489,59.058-3.783,36.254-19.039,74.087-19.039,74.087l3.244,1.816h2.242l-.454,1C1013.347,465.47,1006.131,483.5,1007.5,502.424Z" transform="translate(-977.37 -216.761)" fill="url(#linear-gradient-4)"/>
      <path id="Caminho_17" data-name="Caminho 17" d="M1007.5,502.424c-1.371-18.926,5.845-36.954,7.746-41.323l.454-1h-2.242l-3.244-1.816s15.256-37.833,19.039-74.087c2.97-28.441,3.027-47.859,6.489-59.058a20.431,20.431,0,0,1,3.755-7.387c-.218,2.024-.378,4.067-.492,6.1-.135,2.473-.192,4.939-.194,7.376l0,0c-6.522,7.8-4.117,30.5-2.018,36.875s15.4,11.6,6.965,9.707,1.813,12.3,7.387,18.68.1,9.458-7.387,6.384-10.246,6.384,0,23.173-11.95,75.428,29.952,85.2,46.034,33.423,46.034,33.423H1011.6C1013.177,535.216,1009.082,524.178,1007.5,502.424Z" transform="translate(-977.37 -216.761)" fill="url(#linear-gradient-5)"/>
      <path id="Caminho_18" data-name="Caminho 18" d="M1008.67,451.61c1.334,12.286,2.724,23.088,4.294,30.636l10.083-19.863Z" transform="translate(-881.94 -224.011)" fill="url(#linear-gradient-6)"/>
      <path id="Caminho_19" data-name="Caminho 19" d="M1079.687,313.359v6.148c-14.818,0-20.02-17.34-20.02-17.34C1069.6,313.359,1079.687,313.359,1079.687,313.359Z" transform="translate(-986.815 -215.917)" fill="url(#linear-gradient-7)"/>
      <path id="Caminho_20" data-name="Caminho 20" d="M1141.288,446.567h.01c-.64,3.077-1.246,5.893-1.793,8.388a14.91,14.91,0,0,1-8.251,5.412l-10.636,2.956-8.107-6.823C1116.673,449.177,1125.037,441.541,1141.288,446.567Z" transform="translate(-1098.406 -223.651)" fill="url(#linear-gradient-8)"/>
      <path id="Caminho_21" data-name="Caminho 21" d="M1131.535,472.435s-5.552,2.429-7.865-4.857,3.189-14.572,9.169-14.687S1130.033,463.644,1131.535,472.435Z" transform="translate(-1102.103 -224.081)" fill="#eaad03"/>
      <path id="Caminho_22" data-name="Caminho 22" d="M1103.44,459.214a19.31,19.31,0,0,0,9.107,0c4.944-1.214,7.2-5.2,4.684-6.158s-4.858.26-9.194-3.9-15.265-4.337-18.214,3.729-4.944,22.812,8.5,24.632,26.54-.693,28.044-4.279S1103.44,459.214,1103.44,459.214Z" transform="translate(-1060.044 -223.726)" fill="#fed300"/>
      <path id="Caminho_23" data-name="Caminho 23" d="M1018.247,366.73c3.481,22.539,6.025,54.65,8.8,80.282,0,0,4.294-27.372,5.24-36.519s-6.942-4.729-7.255-22.388C1024.811,375.659,1021.917,374.656,1018.247,366.73Z" transform="translate(-900.313 -219.414)" fill="#c9e2f4"/>
      <path id="Caminho_24" data-name="Caminho 24" d="M1110.7,485.91l-5.836,1.443a151.275,151.275,0,0,0-11.649-10.653,175.115,175.115,0,0,0-24.374-17.182,1.206,1.206,0,0,1,.024-2.109l1.49-.81.013.018c.016,0,.044.022.076.026a22.078,22.078,0,0,0,10.128,1.376c1.272-.126,1.845-.789,2.839-1.206C1102.966,466.565,1110.7,485.91,1110.7,485.91Z" transform="translate(-1025.932 -224.282)" fill="#1d164d"/>
      <path id="Caminho_25" data-name="Caminho 25" d="M1044.37,364.13c.946,5.77,1.788,9.335,1.788,9.335,19.55,8.1,36.453.53,41.5-2.185-2.942,1.419-10.376,3.859-24.478,1.948C1047.8,371.139,1044.919,366.05,1044.37,364.13Z" transform="translate(-980.321 -219.273)" fill="#c9e2f4"/>
      <path id="Caminho_26" data-name="Caminho 26" d="M1022.7,493.514l4.047,6.747a21.658,21.658,0,0,0,14.712,10.174c12.29,2.227,34.136,4.832,54.445.392a21.746,21.746,0,0,0,13.49-9.222l5.373-8.111a2.681,2.681,0,0,0-1.44-4.046c-10.912-3.366-47-12.367-89.074.1A2.693,2.693,0,0,0,1022.7,493.514Z" transform="translate(-987.023 -225.72)" fill="url(#linear-gradient-9)"/>
      <path id="Caminho_27" data-name="Caminho 27" d="M1022.74,490.745a2.593,2.593,0,0,0,1.485,1.154,141.951,141.951,0,0,0,23.693,4.975c4.512.577,9.477,1.021,14.821,1.22a161.528,161.528,0,0,0,20.345-.549q4.37-.4,8.91-1.059a153.1,153.1,0,0,0,21.3-4.691,2.7,2.7,0,0,0,1.542-1.192,2.644,2.644,0,0,0-1.494-1.154,133.526,133.526,0,0,0-15.389-3.689c-4.436-.813-9.543-1.542-15.2-2.024a158.584,158.584,0,0,0-58.481,5.817A2.649,2.649,0,0,0,1022.74,490.745Z" transform="translate(-987.037 -225.72)" fill="#4a4975"/>
      <path id="Caminho_28" data-name="Caminho 28" d="M1046.89,497.3a161.7,161.7,0,0,0,44.076-.388c-5.41-3.575-13.156-5.817-21.754-5.817C1060.311,491.1,1052.319,493.5,1046.89,497.3Z" transform="translate(-986.009 -226.151)" fill="#eaf5ff"/>
      <ellipse id="Elipse_1" data-name="Elipse 1" cx="9.143" cy="3.139" rx="9.143" ry="3.139" transform="translate(73.776 263.138)" fill="#fed300"/>
      <path id="Caminho_29" data-name="Caminho 29" d="M962.84,492.134a161.536,161.536,0,0,0,20.345-.549A50.049,50.049,0,0,0,998.053,479.8c11.681-13.535,14.424-30.532,21.13-38.741,9.7-11.87,37.6-6.574,47.528-22.18a69.566,69.566,0,0,1,4.88-6.763c-4.493-15.578-14.225-29.832-21.546-39-.6,3.178-1.22,6.6-1.939,10.291-5.987,30.9-26.483,28.687-47.916,34.684s-9.78,23.324-11.35,45a26.391,26.391,0,0,1-5.987,14.679C976.952,485.2,968.118,489.845,962.84,492.134Z" transform="translate(-887.138 -219.76)" fill="#fff"/>
    </g>
  </g>
</svg>
